<?xml version="1.0" standalone="no"?>
<!DOCTYPE svg PUBLIC "-//W3C//DTD SVG 20010904//EN"
 "http://www.w3.org/TR/2001/REC-SVG-20010904/DTD/svg10.dtd">
<svg version="1.0" xmlns="http://www.w3.org/2000/svg"
 width="300.000000pt" height="300.000000pt" viewBox="0 0 300.000000 300.000000"
 preserveAspectRatio="xMidYMid meet">

<g transform="translate(0.000000,300.000000) scale(0.100000,-0.100000)"
fill="#000000" stroke="none">
<path d="M1360 2265 c-52 -6 -113 -17 -135 -25 -125 -40 -227 -127 -263 -223
-22 -59 -49 -404 -39 -509 7 -79 54 -174 117 -236 68 -67 240 -155 345 -177
89 -18 148 -15 318 16 231 42 308 100 351 264 20 75 40 352 33 462 -10 163
-97 276 -287 370 -155 76 -229 86 -440 58z m508 -211 c40 -28 21 -131 -39
-215 -17 -24 -19 -34 -10 -66 42 -149 -31 -312 -170 -384 -51 -26 -179 -38
-228 -21 -27 9 -39 6 -106 -29 -175 -90 -244 -24 -155 147 38 73 39 79 28 121
-57 230 160 449 391 393 47 -11 53 -10 86 10 49 30 124 59 155 60 14 0 36 -7
48 -16z"/>
<path d="M1718 2009 c-32 -16 -58 -31 -58 -32 0 -2 21 -19 46 -37 25 -19 54
-49 65 -67 12 -18 25 -31 30 -27 13 7 55 92 63 127 4 16 4 37 1 48 -10 30 -78
24 -147 -12z"/>
<path d="M1385 1957 c-98 -47 -153 -116 -174 -220 -13 -58 -2 -135 25 -189 21
-42 81 -105 117 -124 27 -14 31 -14 65 13 96 72 249 224 322 318 l42 54 -20
33 c-54 88 -135 132 -247 136 -67 2 -88 -1 -130 -21z"/>
<path d="M1733 1708 c-56 -68 -214 -225 -278 -275 -22 -17 -36 -35 -32 -40 5
-4 43 -8 85 -7 60 0 87 5 122 23 120 62 191 185 175 308 -3 29 -10 53 -14 53
-4 0 -30 -28 -58 -62z"/>
<path d="M1179 1469 c-66 -132 -31 -180 91 -123 84 39 86 42 40 75 -22 16 -53
47 -69 70 l-30 41 -32 -63z"/>
<path d="M445 931 c-63 -26 -83 -125 -36 -175 29 -30 83 -43 117 -27 38 17 28
31 -21 31 -53 0 -85 25 -85 68 0 50 25 72 81 72 51 0 63 12 30 30 -23 12 -58
12 -86 1z"/>
<path d="M637 933 c-4 -3 -7 -51 -7 -105 0 -80 3 -98 15 -98 11 0 15 11 15 36
l0 35 42 -3 c38 -3 43 -6 50 -34 8 -31 32 -51 43 -35 3 5 -2 28 -10 52 -11 29
-12 46 -5 53 17 17 11 65 -10 86 -15 15 -33 20 -73 20 -30 0 -57 -3 -60 -7z
m111 -65 c-3 -31 -5 -33 -43 -33 -38 0 -40 2 -43 33 -3 32 -3 32 43 32 46 0
46 0 43 -32z"/>
<path d="M887 933 c-4 -3 -7 -51 -7 -105 0 -79 3 -98 15 -98 11 0 15 16 17 68
l3 67 29 -42 c16 -24 32 -43 37 -43 4 0 17 16 29 35 12 19 26 35 31 35 5 0 9
-27 9 -60 0 -47 3 -60 15 -60 12 0 15 18 15 99 0 55 -4 102 -9 105 -10 7 -37
-22 -67 -71 l-22 -36 -37 56 c-37 56 -45 63 -58 50z"/>
<path d="M1315 915 c-43 -42 -27 -77 45 -98 34 -10 45 -18 45 -32 0 -15 -8
-21 -33 -23 -18 -2 -40 2 -48 9 -11 9 -18 9 -26 1 -29 -29 60 -65 108 -43 13
6 29 22 36 35 16 37 -9 70 -66 85 -34 8 -46 16 -46 30 0 23 33 33 67 20 33
-12 43 -11 43 4 0 17 -42 37 -76 37 -14 0 -36 -11 -49 -25z"/>
<path d="M1506 931 c-3 -5 10 -31 28 -59 24 -34 36 -64 38 -93 2 -31 7 -44 18
-44 11 0 16 13 18 44 2 29 14 59 34 88 31 46 33 88 2 62 -8 -7 -22 -26 -31
-43 l-16 -30 -36 42 c-38 43 -46 48 -55 33z"/>
<path d="M1752 920 c-42 -39 -18 -93 47 -104 37 -6 58 -27 45 -47 -8 -13 -68
-11 -82 3 -9 9 -15 9 -24 0 -35 -35 85 -67 125 -33 20 16 23 74 5 89 -7 5 -32
15 -55 21 -31 9 -43 17 -43 30 0 23 33 33 67 20 33 -12 43 -11 43 4 0 17 -42
37 -79 37 -15 0 -37 -9 -49 -20z"/>
<path d="M1955 930 c-11 -17 5 -30 36 -30 l29 0 0 -84 c0 -47 4 -87 9 -90 20
-13 32 25 30 93 -1 39 0 73 3 76 2 2 15 6 29 8 13 2 24 10 24 18 0 17 -149 26
-160 9z"/>
<path d="M2207 933 c-13 -13 -8 -201 6 -205 29 -10 99 -9 112 2 23 19 8 30
-40 30 -29 0 -45 5 -49 15 -11 29 5 45 45 45 28 0 39 4 39 15 0 11 -11 15 -39
15 -43 0 -55 9 -45 34 4 11 19 16 44 16 36 0 67 20 53 33 -8 9 -118 9 -126 0z"/>
<path d="M2422 923 c-11 -23 -5 -184 8 -197 13 -13 19 7 22 78 l3 60 28 -42
c15 -23 31 -42 36 -42 5 0 21 19 35 43 l25 42 1 -67 c0 -62 2 -68 20 -68 20 0
21 5 18 102 -2 62 -7 103 -14 105 -6 2 -28 -22 -48 -53 l-38 -56 -34 50 c-41
61 -50 68 -62 45z"/>
</g>
</svg>
